<?xml version="1.0" encoding="utf-8"?>
<!-- Generator: Adobe Illustrator 28.3.0, SVG Export Plug-In . SVG Version: 6.00 Build 0)  -->
<svg version="1.1" id="Layer_1" xmlns="http://www.w3.org/2000/svg" xmlns:xlink="http://www.w3.org/1999/xlink" x="0px" y="0px"
	 viewBox="0 0 610.7 90.7" style="enable-background:new 0 0 610.7 90.7;" xml:space="preserve">
<style type="text/css">
	.st0{fill:#C1D9CF;}
	.st1{fill:#3F6D73;}
	.st2{fill:#C4AF76;}
	.st3{fill:#FFFFFF;}
	.st4{fill:#403C3A;}
</style>
<g>
	<g>
		<g>
			<g>
				<path class="st1" d="M314,36.2c-0.3,0.3-0.7,0.6-1,0.9l10.8,11l-0.2,28.3c0.9,0,1.7-0.1,2.6-0.3l0.1-25.6l4,4l-0.1,19
					c0.9-0.3,1.7-0.7,2.5-1.1l0-15.3l5.5,5.5c0.1-0.1,0.1-0.1,0.2-0.2c0.5-0.5,1-1.1,1.5-1.7l-25.2-25.5
					C314.6,35.5,314.3,35.9,314,36.2z"/>
			</g>
			<g>
				<path class="st1" d="M306.2,34.9c0,0.4,0,0.9-0.1,1.3l15.4,0.1l19.9,20.1c0.6-0.6,1.1-1.3,1.6-2l-18-18.2l5.7,0l13.4,13.5
					c0.4-0.8,0.7-1.7,1-2.6l-10.8-10.8l7.8,0c0-0.1,0-0.2,0-0.3c0-0.8,0-1.5-0.1-2.2l-35.9-0.2C306.2,34.1,306.2,34.5,306.2,34.9z"
					/>
			</g>
			<g>
				<path class="st1" d="M299.8,39.6c0.3,0.3,0.6,0.7,0.9,1l11-10.8l28.3,0.2c0-0.9-0.1-1.7-0.3-2.6l-25.6-0.1l4-4l19,0.1
					c-0.3-0.9-0.7-1.7-1.1-2.5l-15.3,0l5.5-5.5c-0.1-0.1-0.1-0.1-0.2-0.2c-0.5-0.5-1.1-1-1.7-1.5l-25.5,25.2
					C299.2,39,299.5,39.3,299.8,39.6z"/>
			</g>
			<g>
				<path class="st1" d="M298.5,47.4c0.4,0,0.9,0,1.3,0.1l0.1-15.4l20.1-19.9c-0.6-0.6-1.3-1.1-2-1.6l-18.2,18l0-5.7l13.5-13.4
					c-0.8-0.4-1.7-0.7-2.6-1l-10.8,10.8l0-7.8c-0.1,0-0.2,0-0.3,0c-0.8,0-1.5,0-2.2,0.1l-0.2,35.9C297.7,47.5,298.1,47.4,298.5,47.4
					z"/>
			</g>
			<g>
				<path class="st1" d="M303.2,53.8c0.3-0.3,0.7-0.6,1-0.9l-10.8-11l0.2-28.3c-0.9,0-1.7,0.1-2.6,0.3l-0.1,25.6l-4-4l0.1-19
					c-0.9,0.3-1.7,0.7-2.5,1.1l0,15.3l-5.5-5.5c-0.1,0.1-0.1,0.1-0.2,0.2c-0.5,0.5-1,1.1-1.5,1.7l25.2,25.5
					C302.6,54.5,302.9,54.1,303.2,53.8z"/>
			</g>
			<g>
				<path class="st1" d="M311,55.1c0-0.4,0-0.9,0.1-1.3l-15.4-0.1l-19.9-20.1c-0.6,0.6-1.1,1.3-1.6,2l18,18.2l-5.7,0l-13.4-13.5
					c-0.4,0.8-0.7,1.7-1,2.6l10.8,10.8l-7.8,0c0,0.1,0,0.2,0,0.3c0,0.8,0,1.5,0.1,2.2l35.9,0.2C311.1,55.9,311,55.5,311,55.1z"/>
			</g>
			<g>
				<path class="st1" d="M317.5,50.4c-0.3-0.3-0.6-0.7-0.9-1l-11,10.8l-28.3-0.2c0,0.9,0.1,1.7,0.3,2.6l25.6,0.1l-4,4l-19-0.1
					c0.3,0.9,0.7,1.7,1.1,2.5l15.3,0l-5.5,5.5c0.1,0.1,0.1,0.1,0.2,0.2c0.5,0.5,1.1,1,1.7,1.5l25.5-25.2
					C318.1,51,317.8,50.7,317.5,50.4z"/>
			</g>
			<g>
				<path class="st1" d="M318.7,42.6c-0.4,0-0.9,0-1.3-0.1l-0.1,15.4l-20.1,19.9c0.6,0.6,1.3,1.1,2,1.6l18.2-18l0,5.7l-13.5,13.4
					c0.8,0.4,1.7,0.7,2.6,1l10.8-10.8l0,7.8c0.1,0,0.2,0,0.3,0c0.8,0,1.5,0,2.2-0.1l0.2-35.9C319.5,42.5,319.1,42.6,318.7,42.6z"/>
			</g>
		</g>
		<g>
			<path class="st1" d="M308.6,55.8c-6,0-10.8-4.8-10.8-10.8s4.8-10.8,10.8-10.8c6,0,10.8,4.8,10.8,10.8S314.6,55.8,308.6,55.8z
				 M317.2,45c0-4.8-3.9-8.6-8.6-8.6c-4.8,0-8.6,3.9-8.6,8.6s3.9,8.6,8.6,8.6C313.4,53.6,317.2,49.8,317.2,45z"/>
		</g>
	</g>
	<g>
		<path class="st1" d="M371.7,50.7h1.9V39.1h-1.9v-1.5h5.5c3.2,0,5.3,1.6,5.3,4.2c0,2-1.3,3.4-3.1,4l3,4.9h1.7v1.5h-2.9l-3.6-5.9
			c-0.3,0-0.6,0-0.8,0c-0.6,0-1.3,0-1.7,0v4.5h1.9v1.5h-5.4V50.7z M380.9,41.9c0-1.8-1.5-2.8-3.7-2.8h-1.9v5.7c0.4,0,1.1,0,1.8,0
			C379.2,44.9,380.9,43.8,380.9,41.9z"/>
		<path class="st1" d="M395.2,50.7h1.9V39.1h-1.9v-1.5h10.5v3.5h-1.6v-2.1h-5.5v5h4.7v1.4h-4.7v5.2h5.5v-2.1h1.6v3.5h-10.6V50.7z"/>
		<path class="st1" d="M417.9,50.7h1.4l4.3-11.6H422v-1.4h6.6v1.4h-1.7l4.3,11.6h1.4v1.5h-4.8v-1.4h1.7l-1.3-3.6h-5.9l-1.3,3.6h1.8
			v1.4h-4.8V50.7z M427.7,45.8l-2.5-6.8l-2.5,6.8H427.7z"/>
		<path class="st1" d="M443.8,50.7h1.9V39.1h-1.9v-1.5h5.5v1.5h-2v11.6h5v-2.2h1.6v3.7h-10.1V50.7z"/>
		<path class="st1" d="M479.5,50.7h1.9V39.1h-1.9v-1.5h10.5v3.5h-1.6v-2.1H483v5h4.7v1.4H483v5.2h5.5v-2.1h1.6v3.5h-10.6V50.7z"/>
		<path class="st1" d="M501.9,49.4c0-0.8,0.5-1.4,1.2-1.4c0.7,0,1.1,0.5,1.1,1.1c0,0.4-0.2,0.7-0.4,1c0.5,0.5,1.6,0.9,2.9,0.9
			c1.9,0,3.1-1,3.1-2.6c0-1.5-1.4-2.2-3-2.8c-2.5-0.9-4.4-1.9-4.4-4.4c0-2.2,1.8-3.9,4.5-3.9c2.4,0,4.3,1.4,4.3,2.9
			c0,0.8-0.5,1.3-1.1,1.3c-0.7,0-1.2-0.5-1.2-1.1c0-0.4,0.2-0.6,0.3-0.8c-0.4-0.4-1.5-0.7-2.4-0.7c-1.7,0-2.8,0.9-2.8,2.3
			c0,1.5,1.4,2.2,3.2,2.9c2.4,0.9,4.2,1.8,4.2,4.3c0,2.6-2,4.1-4.8,4.1C503.9,52.4,501.9,50.8,501.9,49.4z"/>
		<path class="st1" d="M526.1,50.7h2V39.1h-3.6v2.3h-1.6v-3.7h12.1v3.7h-1.6v-2.3h-3.6v11.7h2v1.5h-5.6V50.7z"/>
		<path class="st1" d="M544.3,50.7h1.4l4.3-11.6h-1.7v-1.4h6.6v1.4h-1.7l4.3,11.6h1.4v1.5h-4.8v-1.4h1.7l-1.3-3.6h-5.9l-1.3,3.6h1.8
			v1.4h-4.8V50.7z M554.1,45.8l-2.5-6.8l-2.5,6.8H554.1z"/>
		<path class="st1" d="M571.7,50.7h2V39.1H570v2.3h-1.6v-3.7h12.1v3.7h-1.6v-2.3h-3.6v11.7h2v1.5h-5.6V50.7z"/>
		<path class="st1" d="M591.9,50.7h1.9V39.1h-1.9v-1.5h10.5v3.5h-1.6v-2.1h-5.5v5h4.7v1.4h-4.7v5.2h5.5v-2.1h1.6v3.5h-10.6V50.7z"/>
	</g>
	<g>
		<path class="st1" d="M12.3,36.6h1.9c1.7,2.7,3.5,5.3,5.4,7.8c1.9-2.6,3.7-5.2,5.4-7.8h1.9c-0.2,0-0.2,15.3,0,15.3l-2,0v-8.6
			c0-1.2,0-2.4,0-3.3h0c-0.7,1-1.4,2-2.1,3l-3.3,4.8L16.3,43c-0.7-1-1.4-2-2.1-3h0c0,0.9,0,2.1,0,3.3c0,3.5,0,7.7,0,8.6h-1.9
			C12.5,52,12.5,36.6,12.3,36.6z"/>
		<path class="st1" d="M36.6,36.6h2c-0.1,0-0.1,15.3,0,15.3h-2C36.7,52,36.7,36.6,36.6,36.6z"/>
		<path class="st1" d="M55.4,52.2c-4.7,0-8.1-3.4-8.1-7.9c0-4.4,3.3-7.9,8-7.9c1.6,0,3.2,0.4,4.4,1.1l0,2.2
			c-1.1-1.1-2.7-1.5-4.3-1.4c-3.5,0.2-6,2.6-6,6c0,3.4,2.5,6,6.1,6.1c1.7,0,3.2-0.5,4.3-1.5l0,2.2C58.7,51.8,57.1,52.2,55.4,52.2z"
			/>
		<path class="st1" d="M177,52.2c-4.7,0-8.1-3.4-8.1-7.9c0-4.4,3.3-7.9,8-7.9c1.6,0,3.2,0.4,4.4,1.1l0,2.2c-1.1-1.1-2.7-1.5-4.3-1.4
			c-3.5,0.2-6,2.6-6,6c0,3.4,2.5,6,6.1,6.1c1.7,0,3.2-0.5,4.3-1.5l0,2.2C180.2,51.8,178.6,52.2,177,52.2z"/>
		<path class="st1" d="M68.9,36.6h2c0,0.7,0,3.7,0,6.5h8.3c0-2.4,0-4.4,0-6.5h2c-0.2,5.2-0.2,10.2,0,15.3h-2c0.1-0.4,0.1-2.7,0-7.1
			h-8.3c0,4,0,6.6,0,7.1h-2C69,46.7,69,41.5,68.9,36.6z"/>
		<path class="st1" d="M90.9,36.6h8.9l0,1.8c-2.4-0.1-4.7-0.1-6.8,0l0,4.6h6v1.8h-6l0,5.3c2.3,0.1,4.6,0.1,7,0l0,1.8h-9V36.6z"/>
		<path class="st1" d="M109,36.6h2c-0.1,4.8-0.2,9.4,0,13.5c2.4,0.2,4.8,0.1,7.2,0l0,1.8l-9.3,0C109.2,46.9,109.2,41.8,109,36.6z"/>
		<path class="st1" d="M126.9,36.6h2c-0.1,4.8-0.2,9.4,0,13.5c2.4,0.2,4.8,0.1,7.2,0l0,1.8l-9.3,0C127.1,46.9,127.1,41.8,126.9,36.6
			z"/>
		<path class="st1" d="M144.8,36.6h8.9l0,1.8c-2.4-0.1-4.7-0.1-6.8,0l0,4.6h6v1.8h-6l0,5.3c2.4,0.1,4.7,0.1,7,0l0,1.8h-9V36.6z"/>
		<path class="st1" d="M188.3,44.3c0-4.4,3.3-7.9,7.8-7.9c4.4,0,7.8,3.5,7.8,7.9c0,4.4-3.3,7.9-7.8,7.9
			C191.6,52.2,188.3,48.8,188.3,44.3z M201.9,44.3c0-3.4-2.4-6-5.8-6c-3.3,0-5.8,2.7-5.8,6s2.4,6,5.8,6
			C199.4,50.3,201.9,47.7,201.9,44.3z"/>
		<path class="st1" d="M210.1,44.3c0-4.4,3.3-7.9,7.8-7.9c4.4,0,7.8,3.5,7.8,7.9c0,4.4-3.3,7.9-7.8,7.9
			C213.4,52.2,210.1,48.8,210.1,44.3z M223.7,44.3c0-3.4-2.4-6-5.8-6c-3.3,0-5.8,2.7-5.8,6s2.4,6,5.8,6
			C221.2,50.3,223.7,47.7,223.7,44.3z"/>
		<path class="st1" d="M233.3,36.6l2,0v7.2l0,0c2.5-2.5,4.9-4.9,6.8-7.2h2.4c-2.6,2.5-5,4.9-7,7.3c2,2.4,4.5,5.1,7.5,8h-2.6
			c-2.2-2.7-4.6-5.2-7.2-7.7l0,0V52l-2,0C233.4,46.6,233.4,41.5,233.3,36.6z"/>
	</g>
</g>
</svg>
