<svg width="32" height="32" viewBox="0 0 32 32" fill="none" xmlns="http://www.w3.org/2000/svg">
  <rect width="32" height="32" rx="4" fill="#0F1923"/>
  <path d="M7 8H14.5C15.9587 8 17.1667 8.28333 18.125 8.85C19.0833 9.41667 19.7917 10.1833 20.25 11.15C20.7083 12.1167 20.9375 13.2 20.9375 14.4C20.9375 15.6 20.7083 16.6833 20.25 17.65C19.7917 18.6167 19.0833 19.3833 18.125 19.95C17.1667 20.5167 15.9587 20.8 14.5 20.8H10.0625V24H7V8ZM14.3125 18C15.4375 18 16.2917 17.7 16.875 17.1C17.4583 16.5 17.75 15.6 17.75 14.4C17.75 13.2 17.4583 12.3 16.875 11.7C16.2917 11.1 15.4375 10.8 14.3125 10.8H10.0625V18H14.3125Z" fill="white"/>
  <path d="M22 8H25.0625V24H22V8Z" fill="#FF3A46"/>
</svg>
